<svg width="132" height="123" viewBox="0 0 132 123" fill="none" xmlns="http://www.w3.org/2000/svg">
<path d="M31.6581 118.567C36.7104 120.601 42.1915 121.807 47.9467 122.008C55.7355 122.28 63.1422 120.67 69.7635 117.611C61.8234 114.492 54.6322 109.929 48.4949 104.257C44.5166 110.627 38.6325 115.658 31.6581 118.567Z" fill="#FF9100"/>
<path d="M48.4923 104.259C34.4827 91.302 25.9838 72.5484 26.7021 51.979C26.7254 51.311 26.7607 50.6435 26.8019 49.9762C24.2928 49.3273 21.6734 48.9313 18.9777 48.8371C15.1191 48.7024 11.3823 49.181 7.85452 50.1744C4.11472 56.7255 1.85787 64.242 1.57672 72.2932C0.851127 93.0713 13.4253 111.227 31.6556 118.569C38.63 115.66 44.5139 110.635 48.4923 104.259Z" fill="#FFC400"/>
<path d="M48.4937 104.258C51.7509 99.0459 53.7258 92.9348 53.9557 86.3506C54.5605 69.0316 42.9175 54.133 26.8033 49.9757C26.762 50.643 26.7268 51.3105 26.7035 51.9785C25.9852 72.5479 34.484 91.3015 48.4937 104.258Z" fill="#FF9100"/>
<path d="M52.1543 1.29291C42.9766 8.64534 35.7294 18.3402 31.3447 29.5084C28.8344 35.9054 27.2569 42.7768 26.7964 49.9798C42.9106 54.1372 54.5536 69.0358 53.9488 86.3548C53.7189 92.939 51.7382 99.044 48.4868 104.263C54.6239 109.941 61.8153 114.497 69.7555 117.616C85.693 110.249 97.0006 94.3967 97.6554 75.6462C98.0796 63.4978 93.4121 52.6704 86.8167 43.5311C79.8515 33.8654 52.1543 1.29291 52.1543 1.29291Z" fill="#DD2C00"/>
<g filter="url(#filter0_d_47_3683)">
<circle cx="100" cy="90" r="30" fill="white"/>
<path fill-rule="evenodd" clip-rule="evenodd" d="M86.6667 99.5C86.1389 99.1945 85.7292 98.7917 85.4375 98.2917C85.1458 97.7917 85 97.2362 85 96.625V83.375C85 82.7639 85.1458 82.2084 85.4375 81.7084C85.7292 81.2084 86.1389 80.8056 86.6667 80.5L98.3333 73.7917C98.8611 73.4862 99.4167 73.3334 100 73.3334C100.583 73.3334 101.139 73.4862 101.667 73.7917L113.333 80.5C113.861 80.8056 114.271 81.2084 114.563 81.7084C114.854 82.2084 115 82.7639 115 83.375V96.625C115 97.2362 114.854 97.7917 114.563 98.2917C114.271 98.7917 113.861 99.1945 113.333 99.5L101.667 106.208C101.139 106.514 100.583 106.667 100 106.667C99.4167 106.667 98.8611 106.514 98.3333 106.208L86.6667 99.5ZM88 96.6657V83.2922L100 76.5L112 83.25V96.6657L100 103.5L88 96.6657ZM97.3818 92.6182C99.1273 94.3637 100 96.4909 100 99C100 96.4909 100.873 94.3637 102.618 92.6182C104.364 90.8728 106.491 90 109 90C106.491 90 104.364 89.1273 102.618 87.3819C100.873 85.6364 100 83.5091 100 81C100 83.5091 99.1273 85.6364 97.3818 87.3819C95.6364 89.1273 93.5091 90 91 90C93.5091 90 95.6364 90.8728 97.3818 92.6182Z" fill="#1F1F1F"/>
</g>
<defs>
<filter id="filter0_d_47_3683" x="68" y="58.6704" width="64" height="64" filterUnits="userSpaceOnUse" color-interpolation-filters="sRGB">
<feFlood flood-opacity="0" result="BackgroundImageFix"/>
<feColorMatrix in="SourceAlpha" type="matrix" values="0 0 0 0 0 0 0 0 0 0 0 0 0 0 0 0 0 0 127 0" result="hardAlpha"/>
<feOffset dy="0.670408"/>
<feGaussianBlur stdDeviation="1"/>
<feComposite in2="hardAlpha" operator="out"/>
<feColorMatrix type="matrix" values="0 0 0 0 0 0 0 0 0 0 0 0 0 0 0 0 0 0 0.3 0"/>
<feBlend mode="normal" in2="BackgroundImageFix" result="effect1_dropShadow_47_3683"/>
<feBlend mode="normal" in="SourceGraphic" in2="effect1_dropShadow_47_3683" result="shape"/>
</filter>
</defs>
</svg>
